<svg width="567" height="36" viewBox="0 0 567 36" fill="none" xmlns="http://www.w3.org/2000/svg">
<rect width="204" height="36" fill="#EFF2F4"/>
<path d="M17.7727 16.2727C17.7045 15.697 17.428 15.25 16.9432 14.9318C16.4583 14.6136 15.8636 14.4545 15.1591 14.4545C14.6439 14.4545 14.1932 14.5379 13.8068 14.7045C13.4242 14.8712 13.125 15.1004 12.9091 15.392C12.697 15.6837 12.5909 16.0152 12.5909 16.3864C12.5909 16.697 12.6648 16.964 12.8125 17.1875C12.964 17.4072 13.1572 17.5909 13.392 17.7386C13.6269 17.8826 13.8731 18.0019 14.1307 18.0966C14.3883 18.1875 14.625 18.2614 14.8409 18.3182L16.0227 18.6364C16.3258 18.7159 16.6629 18.8258 17.0341 18.9659C17.4091 19.1061 17.767 19.2973 18.108 19.5398C18.4527 19.7784 18.7367 20.0852 18.9602 20.4602C19.1837 20.8352 19.2955 21.2955 19.2955 21.8409C19.2955 22.4697 19.1307 23.0379 18.8011 23.5455C18.4754 24.053 17.9981 24.4564 17.3693 24.7557C16.7443 25.0549 15.9848 25.2045 15.0909 25.2045C14.2576 25.2045 13.536 25.0701 12.9261 24.8011C12.3201 24.5322 11.8428 24.1572 11.4943 23.6761C11.1496 23.1951 10.9545 22.6364 10.9091 22H12.3636C12.4015 22.4394 12.5492 22.803 12.8068 23.0909C13.0682 23.375 13.3977 23.5871 13.7955 23.7273C14.197 23.8636 14.6288 23.9318 15.0909 23.9318C15.6288 23.9318 16.1117 23.8447 16.5398 23.6705C16.9678 23.4924 17.3068 23.2462 17.5568 22.9318C17.8068 22.6136 17.9318 22.2424 17.9318 21.8182C17.9318 21.4318 17.8239 21.1174 17.608 20.875C17.392 20.6326 17.108 20.4356 16.7557 20.2841C16.4034 20.1326 16.0227 20 15.6136 19.8864L14.1818 19.4773C13.2727 19.2159 12.553 18.8428 12.0227 18.358C11.4924 17.8731 11.2273 17.2386 11.2273 16.4545C11.2273 15.803 11.4034 15.2348 11.7557 14.75C12.1117 14.2614 12.589 13.8826 13.1875 13.6136C13.7898 13.3409 14.4621 13.2045 15.2045 13.2045C15.9545 13.2045 16.6212 13.339 17.2045 13.608C17.7879 13.8731 18.25 14.2367 18.5909 14.6989C18.9356 15.161 19.1174 15.6856 19.1364 16.2727H17.7727ZM25.2259 16.2727V17.4091H20.7031V16.2727H25.2259ZM22.0213 14.1818H23.3622V22.5C23.3622 22.8788 23.4171 23.1629 23.527 23.3523C23.6406 23.5379 23.7846 23.6629 23.9588 23.7273C24.1368 23.7879 24.3243 23.8182 24.5213 23.8182C24.669 23.8182 24.7902 23.8106 24.8849 23.7955C24.9796 23.7765 25.0554 23.7614 25.1122 23.75L25.3849 24.9545C25.294 24.9886 25.1671 25.0227 25.0043 25.0568C24.8414 25.0947 24.6349 25.1136 24.3849 25.1136C24.0062 25.1136 23.6349 25.0322 23.2713 24.8693C22.9115 24.7064 22.6122 24.4583 22.3736 24.125C22.1387 23.7917 22.0213 23.3712 22.0213 22.8636V14.1818ZM28.1065 28.2727C27.8793 28.2727 27.6766 28.2538 27.4986 28.2159C27.3205 28.1818 27.1974 28.1477 27.1293 28.1136L27.4702 26.9318C27.7959 27.0152 28.0838 27.0455 28.3338 27.0227C28.5838 27 28.8054 26.8883 28.9986 26.6875C29.1955 26.4905 29.3755 26.1705 29.5384 25.7273L29.7884 25.0455L26.5611 16.2727H28.0156L30.4247 23.2273H30.5156L32.9247 16.2727H34.3793L30.6747 26.2727C30.508 26.7235 30.3016 27.0966 30.0554 27.392C29.8092 27.6913 29.5232 27.9129 29.1974 28.0568C28.8755 28.2008 28.5118 28.2727 28.1065 28.2727ZM37.4901 13.3636V25H36.1491V13.3636H37.4901ZM43.6051 25.1818C42.7642 25.1818 42.0388 24.9962 41.429 24.625C40.8229 24.25 40.3551 23.7273 40.0256 23.0568C39.6998 22.3826 39.5369 21.5985 39.5369 20.7045C39.5369 19.8106 39.6998 19.0227 40.0256 18.3409C40.3551 17.6553 40.8134 17.1212 41.4006 16.7386C41.9915 16.3523 42.6809 16.1591 43.4688 16.1591C43.9233 16.1591 44.3722 16.2348 44.8153 16.3864C45.2585 16.5379 45.6619 16.7841 46.0256 17.125C46.3892 17.4621 46.679 17.9091 46.8949 18.4659C47.1108 19.0227 47.2188 19.7083 47.2188 20.5227V21.0909H40.4915V19.9318H45.8551C45.8551 19.4394 45.7566 19 45.5597 18.6136C45.3665 18.2273 45.09 17.9223 44.7301 17.6989C44.3741 17.4754 43.9536 17.3636 43.4688 17.3636C42.9347 17.3636 42.4725 17.4962 42.0824 17.7614C41.696 18.0227 41.3987 18.3636 41.1903 18.7841C40.982 19.2045 40.8778 19.6553 40.8778 20.1364V20.9091C40.8778 21.5682 40.9915 22.1269 41.2188 22.5852C41.4498 23.0398 41.7699 23.3864 42.179 23.625C42.5881 23.8598 43.0634 23.9773 43.6051 23.9773C43.9574 23.9773 44.2756 23.928 44.5597 23.8295C44.8475 23.7273 45.0956 23.5758 45.304 23.375C45.5123 23.1705 45.6733 22.9167 45.7869 22.6136L47.0824 22.9773C46.946 23.4167 46.7169 23.803 46.3949 24.1364C46.0729 24.4659 45.6752 24.7235 45.2017 24.9091C44.7282 25.0909 44.196 25.1818 43.6051 25.1818Z" fill="#505050"/>
<rect x="204" width="322.38" height="36" fill="white"/>
<line x1="204.5" x2="204.5" y2="36" stroke="#E0E7E9"/>
<path d="M224.773 16H223.364C223.28 15.5947 223.134 15.2386 222.926 14.9318C222.722 14.625 222.472 14.3674 222.176 14.1591C221.884 13.947 221.561 13.7879 221.205 13.6818C220.848 13.5758 220.477 13.5227 220.091 13.5227C219.386 13.5227 218.748 13.7008 218.176 14.0568C217.608 14.4129 217.155 14.9375 216.818 15.6307C216.485 16.3239 216.318 17.1742 216.318 18.1818C216.318 19.1894 216.485 20.0398 216.818 20.733C217.155 21.4261 217.608 21.9508 218.176 22.3068C218.748 22.6629 219.386 22.8409 220.091 22.8409C220.477 22.8409 220.848 22.7879 221.205 22.6818C221.561 22.5758 221.884 22.4186 222.176 22.2102C222.472 21.9981 222.722 21.7386 222.926 21.4318C223.134 21.1212 223.28 20.7652 223.364 20.3636H224.773C224.667 20.9583 224.473 21.4905 224.193 21.9602C223.913 22.4299 223.564 22.8295 223.148 23.1591C222.731 23.4848 222.263 23.733 221.744 23.9034C221.229 24.0739 220.678 24.1591 220.091 24.1591C219.098 24.1591 218.216 23.9167 217.443 23.4318C216.67 22.947 216.063 22.2576 215.619 21.3636C215.176 20.4697 214.955 19.4091 214.955 18.1818C214.955 16.9545 215.176 15.8939 215.619 15C216.063 14.1061 216.67 13.4167 217.443 12.9318C218.216 12.447 219.098 12.2045 220.091 12.2045C220.678 12.2045 221.229 12.2898 221.744 12.4602C222.263 12.6307 222.731 12.8807 223.148 13.2102C223.564 13.536 223.913 13.9337 224.193 14.4034C224.473 14.8693 224.667 15.4015 224.773 16ZM228.009 12.3636V24H226.668V12.3636H228.009ZM232.833 24.2045C232.28 24.2045 231.778 24.1004 231.327 23.892C230.877 23.6799 230.519 23.375 230.253 22.9773C229.988 22.5758 229.856 22.0909 229.856 21.5227C229.856 21.0227 229.954 20.6174 230.151 20.3068C230.348 19.9924 230.611 19.7462 230.941 19.5682C231.27 19.3902 231.634 19.2576 232.032 19.1705C232.433 19.0795 232.837 19.0076 233.242 18.9545C233.772 18.8864 234.202 18.8352 234.532 18.8011C234.865 18.7633 235.108 18.7008 235.259 18.6136C235.414 18.5265 235.492 18.375 235.492 18.1591V18.1136C235.492 17.553 235.339 17.1174 235.032 16.8068C234.729 16.4962 234.269 16.3409 233.651 16.3409C233.011 16.3409 232.509 16.4811 232.145 16.7614C231.782 17.0417 231.526 17.3409 231.378 17.6591L230.106 17.2045C230.333 16.6742 230.636 16.2614 231.015 15.9659C231.397 15.6667 231.814 15.4583 232.265 15.3409C232.719 15.2197 233.166 15.1591 233.606 15.1591C233.886 15.1591 234.208 15.1932 234.572 15.2614C234.939 15.3258 235.293 15.4602 235.634 15.6648C235.979 15.8693 236.265 16.178 236.492 16.5909C236.719 17.0038 236.833 17.5568 236.833 18.25V24H235.492V22.8182H235.424C235.333 23.0076 235.181 23.2102 234.969 23.4261C234.757 23.642 234.475 23.8258 234.123 23.9773C233.77 24.1288 233.341 24.2045 232.833 24.2045ZM233.038 23C233.568 23 234.015 22.8958 234.378 22.6875C234.746 22.4792 235.022 22.2102 235.208 21.8807C235.397 21.5511 235.492 21.2045 235.492 20.8409V19.6136C235.435 19.6818 235.31 19.7443 235.117 19.8011C234.928 19.8542 234.708 19.9015 234.458 19.9432C234.212 19.9811 233.971 20.0152 233.736 20.0455C233.505 20.072 233.318 20.0947 233.174 20.1136C232.825 20.1591 232.5 20.233 232.197 20.3352C231.897 20.4337 231.655 20.5833 231.469 20.7841C231.288 20.9811 231.197 21.25 231.197 21.5909C231.197 22.0568 231.369 22.4091 231.714 22.6477C232.062 22.8826 232.503 23 233.038 23ZM245.262 17.2273L244.058 17.5682C243.982 17.3674 243.87 17.1723 243.722 16.983C243.579 16.7898 243.382 16.6307 243.132 16.5057C242.882 16.3807 242.561 16.3182 242.171 16.3182C241.637 16.3182 241.192 16.4413 240.836 16.6875C240.484 16.9299 240.308 17.2386 240.308 17.6136C240.308 17.947 240.429 18.2102 240.671 18.4034C240.914 18.5966 241.293 18.7576 241.808 18.8864L243.103 19.2045C243.883 19.3939 244.465 19.6837 244.847 20.0739C245.23 20.4602 245.421 20.9583 245.421 21.5682C245.421 22.0682 245.277 22.5152 244.989 22.9091C244.705 23.303 244.308 23.6136 243.796 23.8409C243.285 24.0682 242.69 24.1818 242.012 24.1818C241.122 24.1818 240.385 23.9886 239.802 23.6023C239.219 23.2159 238.849 22.6515 238.694 21.9091L239.967 21.5909C240.088 22.0606 240.317 22.4129 240.654 22.6477C240.995 22.8826 241.44 23 241.989 23C242.614 23 243.111 22.8674 243.478 22.6023C243.849 22.3333 244.035 22.0114 244.035 21.6364C244.035 21.3333 243.929 21.0795 243.717 20.875C243.505 20.6667 243.179 20.5114 242.739 20.4091L241.285 20.0682C240.486 19.8788 239.899 19.5852 239.524 19.1875C239.152 18.786 238.967 18.2841 238.967 17.6818C238.967 17.1894 239.105 16.7538 239.382 16.375C239.662 15.9962 240.043 15.6989 240.524 15.483C241.008 15.267 241.558 15.1591 242.171 15.1591C243.035 15.1591 243.713 15.3485 244.205 15.7273C244.702 16.1061 245.054 16.6061 245.262 17.2273ZM253.422 17.2273L252.217 17.5682C252.141 17.3674 252.03 17.1723 251.882 16.983C251.738 16.7898 251.541 16.6307 251.291 16.5057C251.041 16.3807 250.721 16.3182 250.331 16.3182C249.797 16.3182 249.352 16.4413 248.995 16.6875C248.643 16.9299 248.467 17.2386 248.467 17.6136C248.467 17.947 248.588 18.2102 248.831 18.4034C249.073 18.5966 249.452 18.7576 249.967 18.8864L251.263 19.2045C252.043 19.3939 252.624 19.6837 253.007 20.0739C253.389 20.4602 253.581 20.9583 253.581 21.5682C253.581 22.0682 253.437 22.5152 253.149 22.9091C252.865 23.303 252.467 23.6136 251.956 23.8409C251.444 24.0682 250.85 24.1818 250.172 24.1818C249.281 24.1818 248.545 23.9886 247.961 23.6023C247.378 23.2159 247.009 22.6515 246.853 21.9091L248.126 21.5909C248.247 22.0606 248.477 22.4129 248.814 22.6477C249.155 22.8826 249.6 23 250.149 23C250.774 23 251.27 22.8674 251.638 22.6023C252.009 22.3333 252.194 22.0114 252.194 21.6364C252.194 21.3333 252.088 21.0795 251.876 20.875C251.664 20.6667 251.338 20.5114 250.899 20.4091L249.444 20.0682C248.645 19.8788 248.058 19.5852 247.683 19.1875C247.312 18.786 247.126 18.2841 247.126 17.6818C247.126 17.1894 247.264 16.7538 247.541 16.375C247.821 15.9962 248.202 15.6989 248.683 15.483C249.168 15.267 249.717 15.1591 250.331 15.1591C251.194 15.1591 251.872 15.3485 252.365 15.7273C252.861 16.1061 253.213 16.6061 253.422 17.2273ZM255.399 24V15.2727H256.74V24H255.399ZM256.081 13.8182C255.82 13.8182 255.594 13.7292 255.405 13.5511C255.219 13.3731 255.126 13.1591 255.126 12.9091C255.126 12.6591 255.219 12.4451 255.405 12.267C255.594 12.089 255.82 12 256.081 12C256.342 12 256.566 12.089 256.751 12.267C256.941 12.4451 257.036 12.6591 257.036 12.9091C257.036 13.1591 256.941 13.3731 256.751 13.5511C256.566 13.7292 256.342 13.8182 256.081 13.8182ZM262.541 24.1818C261.723 24.1818 261.019 23.9886 260.428 23.6023C259.837 23.2159 259.382 22.6837 259.064 22.0057C258.746 21.3277 258.587 20.553 258.587 19.6818C258.587 18.7955 258.75 18.0133 259.076 17.3352C259.405 16.6534 259.863 16.1212 260.451 15.7386C261.041 15.3523 261.731 15.1591 262.519 15.1591C263.132 15.1591 263.685 15.2727 264.178 15.5C264.67 15.7273 265.074 16.0455 265.388 16.4545C265.702 16.8636 265.898 17.3409 265.973 17.8864H264.632C264.53 17.4886 264.303 17.1364 263.951 16.8295C263.602 16.5189 263.132 16.3636 262.541 16.3636C262.019 16.3636 261.56 16.5 261.166 16.7727C260.776 17.0417 260.471 17.4223 260.252 17.9148C260.036 18.4034 259.928 18.9773 259.928 19.6364C259.928 20.3106 260.034 20.8977 260.246 21.3977C260.462 21.8977 260.765 22.286 261.155 22.5625C261.549 22.839 262.011 22.9773 262.541 22.9773C262.89 22.9773 263.206 22.9167 263.49 22.7955C263.774 22.6742 264.015 22.5 264.212 22.2727C264.409 22.0455 264.549 21.7727 264.632 21.4545H265.973C265.898 21.9697 265.71 22.4337 265.411 22.8466C265.115 23.2557 264.723 23.5814 264.235 23.8239C263.75 24.0625 263.185 24.1818 262.541 24.1818ZM278.215 17.2273L277.011 17.5682C276.935 17.3674 276.823 17.1723 276.676 16.983C276.532 16.7898 276.335 16.6307 276.085 16.5057C275.835 16.3807 275.515 16.3182 275.124 16.3182C274.59 16.3182 274.145 16.4413 273.789 16.6875C273.437 16.9299 273.261 17.2386 273.261 17.6136C273.261 17.947 273.382 18.2102 273.624 18.4034C273.867 18.5966 274.246 18.7576 274.761 18.8864L276.056 19.2045C276.837 19.3939 277.418 19.6837 277.801 20.0739C278.183 20.4602 278.374 20.9583 278.374 21.5682C278.374 22.0682 278.23 22.5152 277.943 22.9091C277.659 23.303 277.261 23.6136 276.749 23.8409C276.238 24.0682 275.643 24.1818 274.965 24.1818C274.075 24.1818 273.338 23.9886 272.755 23.6023C272.172 23.2159 271.802 22.6515 271.647 21.9091L272.92 21.5909C273.041 22.0606 273.27 22.4129 273.607 22.6477C273.948 22.8826 274.393 23 274.943 23C275.568 23 276.064 22.8674 276.431 22.6023C276.802 22.3333 276.988 22.0114 276.988 21.6364C276.988 21.3333 276.882 21.0795 276.67 20.875C276.458 20.6667 276.132 20.5114 275.693 20.4091L274.238 20.0682C273.439 19.8788 272.852 19.5852 272.477 19.1875C272.105 18.786 271.92 18.2841 271.92 17.6818C271.92 17.1894 272.058 16.7538 272.335 16.375C272.615 15.9962 272.996 15.6989 273.477 15.483C273.962 15.267 274.511 15.1591 275.124 15.1591C275.988 15.1591 276.666 15.3485 277.159 15.7273C277.655 16.1061 278.007 16.6061 278.215 17.2273ZM283.988 15.2727V16.4091H279.466V15.2727H283.988ZM280.784 13.1818H282.125V21.5C282.125 21.8788 282.18 22.1629 282.289 22.3523C282.403 22.5379 282.547 22.6629 282.721 22.7273C282.899 22.7879 283.087 22.8182 283.284 22.8182C283.432 22.8182 283.553 22.8106 283.647 22.7955C283.742 22.7765 283.818 22.7614 283.875 22.75L284.147 23.9545C284.057 23.9886 283.93 24.0227 283.767 24.0568C283.604 24.0947 283.397 24.1136 283.147 24.1136C282.769 24.1136 282.397 24.0322 282.034 23.8693C281.674 23.7064 281.375 23.4583 281.136 23.125C280.901 22.7917 280.784 22.3712 280.784 21.8636V13.1818ZM286.669 27.2727C286.442 27.2727 286.239 27.2538 286.061 27.2159C285.883 27.1818 285.76 27.1477 285.692 27.1136L286.033 25.9318C286.358 26.0152 286.646 26.0455 286.896 26.0227C287.146 26 287.368 25.8883 287.561 25.6875C287.758 25.4905 287.938 25.1705 288.101 24.7273L288.351 24.0455L285.124 15.2727H286.578L288.987 22.2273H289.078L291.487 15.2727H292.942L289.237 25.2727C289.071 25.7235 288.864 26.0966 288.618 26.392C288.372 26.6913 288.086 26.9129 287.76 27.0568C287.438 27.2008 287.074 27.2727 286.669 27.2727ZM295.853 12.3636V24H294.512V12.3636H295.853ZM301.768 24.1818C300.927 24.1818 300.201 23.9962 299.591 23.625C298.985 23.25 298.518 22.7273 298.188 22.0568C297.862 21.3826 297.699 20.5985 297.699 19.7045C297.699 18.8106 297.862 18.0227 298.188 17.3409C298.518 16.6553 298.976 16.1212 299.563 15.7386C300.154 15.3523 300.843 15.1591 301.631 15.1591C302.086 15.1591 302.535 15.2348 302.978 15.3864C303.421 15.5379 303.824 15.7841 304.188 16.125C304.552 16.4621 304.841 16.9091 305.057 17.4659C305.273 18.0227 305.381 18.7083 305.381 19.5227V20.0909H298.654V18.9318H304.018C304.018 18.4394 303.919 18 303.722 17.6136C303.529 17.2273 303.252 16.9223 302.893 16.6989C302.537 16.4754 302.116 16.3636 301.631 16.3636C301.097 16.3636 300.635 16.4962 300.245 16.7614C299.859 17.0227 299.561 17.3636 299.353 17.7841C299.145 18.2045 299.04 18.6553 299.04 19.1364V19.9091C299.04 20.5682 299.154 21.1269 299.381 21.5852C299.612 22.0398 299.932 22.3864 300.341 22.625C300.751 22.8598 301.226 22.9773 301.768 22.9773C302.12 22.9773 302.438 22.928 302.722 22.8295C303.01 22.7273 303.258 22.5758 303.466 22.375C303.675 22.1705 303.836 21.9167 303.949 21.6136L305.245 21.9773C305.109 22.4167 304.879 22.803 304.557 23.1364C304.235 23.4659 303.838 23.7235 303.364 23.9091C302.891 24.0909 302.359 24.1818 301.768 24.1818Z" fill="#505050"/>
<line y1="0.5" x2="567" y2="0.5" stroke="#E0E7E9"/>
</svg>
