<svg width="567" height="36" viewBox="0 0 567 36" fill="none" xmlns="http://www.w3.org/2000/svg">
<rect width="204" height="36" fill="#EFF2F4"/>
<path d="M17.7727 16.2727C17.7045 15.697 17.428 15.25 16.9432 14.9318C16.4583 14.6136 15.8636 14.4545 15.1591 14.4545C14.6439 14.4545 14.1932 14.5379 13.8068 14.7045C13.4242 14.8712 13.125 15.1004 12.9091 15.392C12.697 15.6837 12.5909 16.0152 12.5909 16.3864C12.5909 16.697 12.6648 16.964 12.8125 17.1875C12.964 17.4072 13.1572 17.5909 13.392 17.7386C13.6269 17.8826 13.8731 18.0019 14.1307 18.0966C14.3883 18.1875 14.625 18.2614 14.8409 18.3182L16.0227 18.6364C16.3258 18.7159 16.6629 18.8258 17.0341 18.9659C17.4091 19.1061 17.767 19.2973 18.108 19.5398C18.4527 19.7784 18.7367 20.0852 18.9602 20.4602C19.1837 20.8352 19.2955 21.2955 19.2955 21.8409C19.2955 22.4697 19.1307 23.0379 18.8011 23.5455C18.4754 24.053 17.9981 24.4564 17.3693 24.7557C16.7443 25.0549 15.9848 25.2045 15.0909 25.2045C14.2576 25.2045 13.536 25.0701 12.9261 24.8011C12.3201 24.5322 11.8428 24.1572 11.4943 23.6761C11.1496 23.1951 10.9545 22.6364 10.9091 22H12.3636C12.4015 22.4394 12.5492 22.803 12.8068 23.0909C13.0682 23.375 13.3977 23.5871 13.7955 23.7273C14.197 23.8636 14.6288 23.9318 15.0909 23.9318C15.6288 23.9318 16.1117 23.8447 16.5398 23.6705C16.9678 23.4924 17.3068 23.2462 17.5568 22.9318C17.8068 22.6136 17.9318 22.2424 17.9318 21.8182C17.9318 21.4318 17.8239 21.1174 17.608 20.875C17.392 20.6326 17.108 20.4356 16.7557 20.2841C16.4034 20.1326 16.0227 20 15.6136 19.8864L14.1818 19.4773C13.2727 19.2159 12.553 18.8428 12.0227 18.358C11.4924 17.8731 11.2273 17.2386 11.2273 16.4545C11.2273 15.803 11.4034 15.2348 11.7557 14.75C12.1117 14.2614 12.589 13.8826 13.1875 13.6136C13.7898 13.3409 14.4621 13.2045 15.2045 13.2045C15.9545 13.2045 16.6212 13.339 17.2045 13.608C17.7879 13.8731 18.25 14.2367 18.5909 14.6989C18.9356 15.161 19.1174 15.6856 19.1364 16.2727H17.7727ZM21.4304 25V16.2727H22.7713V25H21.4304ZM22.1122 14.8182C21.8509 14.8182 21.6255 14.7292 21.4361 14.5511C21.2505 14.3731 21.1577 14.1591 21.1577 13.9091C21.1577 13.6591 21.2505 13.4451 21.4361 13.267C21.6255 13.089 21.8509 13 22.1122 13C22.3736 13 22.5971 13.089 22.7827 13.267C22.9721 13.4451 23.0668 13.6591 23.0668 13.9091C23.0668 14.1591 22.9721 14.3731 22.7827 14.5511C22.5971 14.7292 22.3736 14.8182 22.1122 14.8182ZM24.9773 25V23.9773L29.9318 17.6136V17.5227H25.1364V16.2727H31.6591V17.3409L26.8409 23.6591V23.75H31.8182V25H24.9773ZM37.2926 25.1818C36.4517 25.1818 35.7263 24.9962 35.1165 24.625C34.5104 24.25 34.0426 23.7273 33.7131 23.0568C33.3873 22.3826 33.2244 21.5985 33.2244 20.7045C33.2244 19.8106 33.3873 19.0227 33.7131 18.3409C34.0426 17.6553 34.5009 17.1212 35.0881 16.7386C35.679 16.3523 36.3684 16.1591 37.1562 16.1591C37.6108 16.1591 38.0597 16.2348 38.5028 16.3864C38.946 16.5379 39.3494 16.7841 39.7131 17.125C40.0767 17.4621 40.3665 17.9091 40.5824 18.4659C40.7983 19.0227 40.9062 19.7083 40.9062 20.5227V21.0909H34.179V19.9318H39.5426C39.5426 19.4394 39.4441 19 39.2472 18.6136C39.054 18.2273 38.7775 17.9223 38.4176 17.6989C38.0616 17.4754 37.6411 17.3636 37.1562 17.3636C36.6222 17.3636 36.16 17.4962 35.7699 17.7614C35.3835 18.0227 35.0862 18.3636 34.8778 18.7841C34.6695 19.2045 34.5653 19.6553 34.5653 20.1364V20.9091C34.5653 21.5682 34.679 22.1269 34.9062 22.5852C35.1373 23.0398 35.4574 23.3864 35.8665 23.625C36.2756 23.8598 36.7509 23.9773 37.2926 23.9773C37.6449 23.9773 37.9631 23.928 38.2472 23.8295C38.535 23.7273 38.7831 23.5758 38.9915 23.375C39.1998 23.1705 39.3608 22.9167 39.4744 22.6136L40.7699 22.9773C40.6335 23.4167 40.4044 23.803 40.0824 24.1364C39.7604 24.4659 39.3627 24.7235 38.8892 24.9091C38.4157 25.0909 37.8835 25.1818 37.2926 25.1818Z" fill="#505050"/>
<rect x="204" width="322.38" height="36" fill="white"/>
<line x1="204.5" x2="204.5" y2="36" stroke="#E0E7E9"/>
<path d="M219.136 24.1591C218.386 24.1591 217.718 24.0303 217.131 23.7727C216.547 23.5152 216.083 23.1572 215.739 22.6989C215.398 22.2367 215.212 21.7008 215.182 21.0909H216.614C216.644 21.4659 216.773 21.7898 217 22.0625C217.227 22.3314 217.525 22.5398 217.892 22.6875C218.259 22.8352 218.667 22.9091 219.114 22.9091C219.614 22.9091 220.057 22.822 220.443 22.6477C220.83 22.4735 221.133 22.2311 221.352 21.9205C221.572 21.6098 221.682 21.25 221.682 20.8409C221.682 20.4129 221.576 20.036 221.364 19.7102C221.152 19.3807 220.841 19.1231 220.432 18.9375C220.023 18.7519 219.523 18.6591 218.932 18.6591H218V17.4091H218.932C219.394 17.4091 219.799 17.3258 220.148 17.1591C220.5 16.9924 220.775 16.7576 220.972 16.4545C221.172 16.1515 221.273 15.7955 221.273 15.3864C221.273 14.9924 221.186 14.6496 221.011 14.358C220.837 14.0663 220.591 13.839 220.273 13.6761C219.958 13.5133 219.587 13.4318 219.159 13.4318C218.758 13.4318 218.379 13.5057 218.023 13.6534C217.67 13.7973 217.383 14.0076 217.159 14.2841C216.936 14.5568 216.814 14.8864 216.795 15.2727H215.432C215.455 14.6629 215.638 14.1288 215.983 13.6705C216.328 13.2083 216.778 12.8485 217.335 12.5909C217.896 12.3333 218.511 12.2045 219.182 12.2045C219.902 12.2045 220.519 12.3504 221.034 12.642C221.549 12.9299 221.945 13.3106 222.222 13.7841C222.498 14.2576 222.636 14.7689 222.636 15.3182C222.636 15.9735 222.464 16.5322 222.119 16.9943C221.778 17.4564 221.314 17.7765 220.727 17.9545V18.0455C221.462 18.1667 222.036 18.4792 222.449 18.983C222.862 19.483 223.068 20.1023 223.068 20.8409C223.068 21.4735 222.896 22.0417 222.551 22.5455C222.21 23.0455 221.744 23.4394 221.153 23.7273C220.563 24.0152 219.89 24.1591 219.136 24.1591ZM224.919 21.6136V20.4545L230.033 12.3636H230.874V14.1591H230.306L226.442 20.2727V20.3636H233.328V21.6136H224.919ZM230.397 24V21.2614V20.7216V12.3636H231.738V24H230.397ZM235.28 24V15.2727H236.576V16.6364H236.689C236.871 16.1705 237.165 15.8087 237.57 15.5511C237.975 15.2898 238.462 15.1591 239.03 15.1591C239.606 15.1591 240.085 15.2898 240.468 15.5511C240.854 15.8087 241.155 16.1705 241.371 16.6364H241.462C241.686 16.1856 242.021 15.8277 242.468 15.5625C242.915 15.2936 243.451 15.1591 244.076 15.1591C244.856 15.1591 245.494 15.4034 245.991 15.892C246.487 16.3769 246.735 17.1326 246.735 18.1591V24H245.394V18.1591C245.394 17.5152 245.218 17.0549 244.866 16.7784C244.513 16.5019 244.099 16.3636 243.621 16.3636C243.008 16.3636 242.532 16.5492 242.195 16.9205C241.858 17.2879 241.689 17.7538 241.689 18.3182V24H240.326V18.0227C240.326 17.5265 240.165 17.1269 239.843 16.8239C239.521 16.517 239.106 16.3636 238.599 16.3636C238.25 16.3636 237.924 16.4564 237.621 16.642C237.322 16.8277 237.08 17.0852 236.894 17.4148C236.712 17.7405 236.621 18.1174 236.621 18.5455V24H235.28ZM248.987 24V15.2727H250.282V16.6364H250.396C250.578 16.1705 250.871 15.8087 251.276 15.5511C251.682 15.2898 252.168 15.1591 252.737 15.1591C253.312 15.1591 253.792 15.2898 254.174 15.5511C254.561 15.8087 254.862 16.1705 255.078 16.6364H255.168C255.392 16.1856 255.727 15.8277 256.174 15.5625C256.621 15.2936 257.157 15.1591 257.782 15.1591C258.562 15.1591 259.201 15.4034 259.697 15.892C260.193 16.3769 260.441 17.1326 260.441 18.1591V24H259.1V18.1591C259.1 17.5152 258.924 17.0549 258.572 16.7784C258.22 16.5019 257.805 16.3636 257.328 16.3636C256.714 16.3636 256.239 16.5492 255.901 16.9205C255.564 17.2879 255.396 17.7538 255.396 18.3182V24H254.032V18.0227C254.032 17.5265 253.871 17.1269 253.549 16.8239C253.227 16.517 252.812 16.3636 252.305 16.3636C251.956 16.3636 251.631 16.4564 251.328 16.642C251.028 16.8277 250.786 17.0852 250.6 17.4148C250.418 17.7405 250.328 18.1174 250.328 18.5455V24H248.987ZM267.993 15.2727L270.084 18.8409L272.175 15.2727H273.72L270.902 19.6364L273.72 24H272.175L270.084 20.6136L267.993 24H266.447L269.22 19.6364L266.447 15.2727H267.993ZM279.438 21.6136V20.4545L284.552 12.3636H285.393V14.1591H284.824L280.961 20.2727V20.3636H287.847V21.6136H279.438ZM284.915 24V21.2614V20.7216V12.3636H286.256V24H284.915ZM293.413 24.1591C292.746 24.1591 292.146 24.0265 291.612 23.7614C291.078 23.4962 290.65 23.1326 290.328 22.6705C290.006 22.2083 289.829 21.6818 289.799 21.0909H291.163C291.216 21.6174 291.454 22.053 291.879 22.3977C292.307 22.7386 292.818 22.9091 293.413 22.9091C293.89 22.9091 294.314 22.7973 294.686 22.5739C295.061 22.3504 295.354 22.0436 295.566 21.6534C295.782 21.2595 295.89 20.8144 295.89 20.3182C295.89 19.8106 295.778 19.358 295.555 18.9602C295.335 18.5587 295.032 18.2424 294.646 18.0114C294.259 17.7803 293.818 17.6629 293.322 17.6591C292.966 17.6553 292.6 17.7102 292.225 17.8239C291.85 17.9337 291.542 18.0758 291.299 18.25L289.981 18.0909L290.686 12.3636H296.731V13.6136H291.867L291.458 17.0455H291.526C291.765 16.8561 292.064 16.6989 292.424 16.5739C292.784 16.4489 293.159 16.3864 293.549 16.3864C294.261 16.3864 294.896 16.5568 295.453 16.8977C296.013 17.2348 296.453 17.697 296.771 18.2841C297.093 18.8712 297.254 19.5417 297.254 20.2955C297.254 21.0379 297.087 21.7008 296.754 22.2841C296.424 22.8636 295.97 23.322 295.39 23.6591C294.811 23.9924 294.151 24.1591 293.413 24.1591ZM303.106 24.1591C302.25 24.1591 301.521 23.9261 300.919 23.4602C300.316 22.9905 299.856 22.3106 299.538 21.4205C299.22 20.5265 299.061 19.447 299.061 18.1818C299.061 16.9242 299.22 15.8504 299.538 14.9602C299.86 14.0663 300.322 13.3845 300.924 12.9148C301.53 12.4413 302.258 12.2045 303.106 12.2045C303.955 12.2045 304.68 12.4413 305.282 12.9148C305.888 13.3845 306.351 14.0663 306.669 14.9602C306.991 15.8504 307.152 16.9242 307.152 18.1818C307.152 19.447 306.993 20.5265 306.674 21.4205C306.356 22.3106 305.896 22.9905 305.294 23.4602C304.691 23.9261 303.962 24.1591 303.106 24.1591ZM303.106 22.9091C303.955 22.9091 304.614 22.5 305.084 21.6818C305.553 20.8636 305.788 19.697 305.788 18.1818C305.788 17.1742 305.68 16.3163 305.464 15.608C305.252 14.8996 304.945 14.3598 304.544 13.9886C304.146 13.6174 303.667 13.4318 303.106 13.4318C302.265 13.4318 301.608 13.8466 301.135 14.6761C300.661 15.5019 300.424 16.6705 300.424 18.1818C300.424 19.1894 300.53 20.0455 300.743 20.75C300.955 21.4545 301.26 21.9905 301.657 22.358C302.059 22.7254 302.542 22.9091 303.106 22.9091ZM309.134 24V15.2727H310.429V16.6364H310.543C310.724 16.1705 311.018 15.8087 311.423 15.5511C311.829 15.2898 312.315 15.1591 312.884 15.1591C313.459 15.1591 313.938 15.2898 314.321 15.5511C314.707 15.8087 315.009 16.1705 315.224 16.6364H315.315C315.539 16.1856 315.874 15.8277 316.321 15.5625C316.768 15.2936 317.304 15.1591 317.929 15.1591C318.709 15.1591 319.348 15.4034 319.844 15.892C320.34 16.3769 320.588 17.1326 320.588 18.1591V24H319.247V18.1591C319.247 17.5152 319.071 17.0549 318.719 16.7784C318.366 16.5019 317.952 16.3636 317.474 16.3636C316.861 16.3636 316.385 16.5492 316.048 16.9205C315.711 17.2879 315.543 17.7538 315.543 18.3182V24H314.179V18.0227C314.179 17.5265 314.018 17.1269 313.696 16.8239C313.374 16.517 312.959 16.3636 312.452 16.3636C312.103 16.3636 311.777 16.4564 311.474 16.642C311.175 16.8277 310.933 17.0852 310.747 17.4148C310.565 17.7405 310.474 18.1174 310.474 18.5455V24H309.134ZM322.84 24V15.2727H324.135V16.6364H324.249C324.431 16.1705 324.724 15.8087 325.13 15.5511C325.535 15.2898 326.022 15.1591 326.59 15.1591C327.166 15.1591 327.645 15.2898 328.027 15.5511C328.414 15.8087 328.715 16.1705 328.931 16.6364H329.022C329.245 16.1856 329.58 15.8277 330.027 15.5625C330.474 15.2936 331.01 15.1591 331.635 15.1591C332.416 15.1591 333.054 15.4034 333.55 15.892C334.046 16.3769 334.294 17.1326 334.294 18.1591V24H332.953V18.1591C332.953 17.5152 332.777 17.0549 332.425 16.7784C332.073 16.5019 331.658 16.3636 331.181 16.3636C330.567 16.3636 330.092 16.5492 329.755 16.9205C329.417 17.2879 329.249 17.7538 329.249 18.3182V24H327.885V18.0227C327.885 17.5265 327.724 17.1269 327.402 16.8239C327.08 16.517 326.666 16.3636 326.158 16.3636C325.809 16.3636 325.484 16.4564 325.181 16.642C324.881 16.8277 324.639 17.0852 324.453 17.4148C324.272 17.7405 324.181 18.1174 324.181 18.5455V24H322.84ZM341.846 15.2727L343.937 18.8409L346.028 15.2727H347.573L344.755 19.6364L347.573 24H346.028L343.937 20.6136L341.846 24H340.301L343.073 19.6364L340.301 15.2727H341.846ZM357.655 12.3636V24H356.246V13.8409H356.178L353.337 15.7273V14.2955L356.246 12.3636H357.655ZM364.506 12.2045C364.983 12.2083 365.461 12.2992 365.938 12.4773C366.415 12.6553 366.851 12.9508 367.245 13.3636C367.639 13.7727 367.955 14.3314 368.193 15.0398C368.432 15.7481 368.551 16.6364 368.551 17.7045C368.551 18.7386 368.453 19.6572 368.256 20.4602C368.063 21.2595 367.782 21.9337 367.415 22.483C367.051 23.0322 366.608 23.4489 366.086 23.733C365.567 24.017 364.979 24.1591 364.324 24.1591C363.673 24.1591 363.091 24.0303 362.58 23.7727C362.072 23.5114 361.656 23.1496 361.33 22.6875C361.008 22.2216 360.801 21.6818 360.711 21.0682H362.097C362.222 21.6023 362.47 22.0436 362.841 22.392C363.216 22.7367 363.711 22.9091 364.324 22.9091C365.222 22.9091 365.93 22.517 366.449 21.733C366.972 20.9489 367.233 19.8409 367.233 18.4091H367.142C366.93 18.7273 366.678 19.0019 366.387 19.233C366.095 19.464 365.771 19.642 365.415 19.767C365.059 19.892 364.68 19.9545 364.279 19.9545C363.612 19.9545 363 19.7898 362.443 19.4602C361.89 19.1269 361.447 18.6705 361.114 18.0909C360.784 17.5076 360.62 16.8409 360.62 16.0909C360.62 15.3788 360.779 14.7273 361.097 14.1364C361.419 13.5417 361.87 13.0682 362.449 12.7159C363.032 12.3636 363.718 12.1932 364.506 12.2045ZM364.506 13.4545C364.029 13.4545 363.599 13.5739 363.216 13.8125C362.837 14.0473 362.536 14.3655 362.313 14.767C362.093 15.1648 361.983 15.6061 361.983 16.0909C361.983 16.5758 362.089 17.017 362.301 17.4148C362.517 17.8087 362.811 18.1231 363.182 18.358C363.557 18.589 363.983 18.7045 364.461 18.7045C364.82 18.7045 365.156 18.6345 365.466 18.4943C365.777 18.3504 366.048 18.1553 366.279 17.9091C366.514 17.6591 366.697 17.3769 366.83 17.0625C366.962 16.7443 367.029 16.4129 367.029 16.0682C367.029 15.6136 366.919 15.1875 366.699 14.7898C366.483 14.392 366.184 14.0701 365.801 13.8239C365.423 13.5777 364.991 13.4545 364.506 13.4545ZM370.609 24V15.2727H371.904V16.6364H372.018C372.199 16.1705 372.493 15.8087 372.898 15.5511C373.304 15.2898 373.79 15.1591 374.359 15.1591C374.934 15.1591 375.413 15.2898 375.796 15.5511C376.182 15.8087 376.484 16.1705 376.699 16.6364H376.79C377.014 16.1856 377.349 15.8277 377.796 15.5625C378.243 15.2936 378.779 15.1591 379.404 15.1591C380.184 15.1591 380.823 15.4034 381.319 15.892C381.815 16.3769 382.063 17.1326 382.063 18.1591V24H380.722V18.1591C380.722 17.5152 380.546 17.0549 380.194 16.7784C379.841 16.5019 379.427 16.3636 378.949 16.3636C378.336 16.3636 377.86 16.5492 377.523 16.9205C377.186 17.2879 377.018 17.7538 377.018 18.3182V24H375.654V18.0227C375.654 17.5265 375.493 17.1269 375.171 16.8239C374.849 16.517 374.434 16.3636 373.927 16.3636C373.578 16.3636 373.252 16.4564 372.949 16.642C372.65 16.8277 372.408 17.0852 372.222 17.4148C372.04 17.7405 371.949 18.1174 371.949 18.5455V24H370.609ZM384.315 24V15.2727H385.61V16.6364H385.724C385.906 16.1705 386.199 15.8087 386.605 15.5511C387.01 15.2898 387.497 15.1591 388.065 15.1591C388.641 15.1591 389.12 15.2898 389.502 15.5511C389.889 15.8087 390.19 16.1705 390.406 16.6364H390.497C390.72 16.1856 391.055 15.8277 391.502 15.5625C391.949 15.2936 392.485 15.1591 393.11 15.1591C393.891 15.1591 394.529 15.4034 395.025 15.892C395.521 16.3769 395.769 17.1326 395.769 18.1591V24H394.428V18.1591C394.428 17.5152 394.252 17.0549 393.9 16.7784C393.548 16.5019 393.133 16.3636 392.656 16.3636C392.042 16.3636 391.567 16.5492 391.23 16.9205C390.892 17.2879 390.724 17.7538 390.724 18.3182V24H389.36V18.0227C389.36 17.5265 389.199 17.1269 388.877 16.8239C388.555 16.517 388.141 16.3636 387.633 16.3636C387.284 16.3636 386.959 16.4564 386.656 16.642C386.356 16.8277 386.114 17.0852 385.928 17.4148C385.747 17.7405 385.656 18.1174 385.656 18.5455V24H384.315Z" fill="#505050"/>
<line y1="0.5" x2="567" y2="0.5" stroke="#E0E7E9"/>
</svg>
