<svg width="567" height="36" viewBox="0 0 567 36" fill="none" xmlns="http://www.w3.org/2000/svg">
<rect width="204" height="36" fill="#EFF2F4"/>
<path d="M20.7727 17H19.3636C19.2803 16.5947 19.1345 16.2386 18.9261 15.9318C18.7216 15.625 18.4716 15.3674 18.1761 15.1591C17.8845 14.947 17.5606 14.7879 17.2045 14.6818C16.8485 14.5758 16.4773 14.5227 16.0909 14.5227C15.3864 14.5227 14.7481 14.7008 14.1761 15.0568C13.608 15.4129 13.1553 15.9375 12.8182 16.6307C12.4848 17.3239 12.3182 18.1742 12.3182 19.1818C12.3182 20.1894 12.4848 21.0398 12.8182 21.733C13.1553 22.4261 13.608 22.9508 14.1761 23.3068C14.7481 23.6629 15.3864 23.8409 16.0909 23.8409C16.4773 23.8409 16.8485 23.7879 17.2045 23.6818C17.5606 23.5758 17.8845 23.4186 18.1761 23.2102C18.4716 22.9981 18.7216 22.7386 18.9261 22.4318C19.1345 22.1212 19.2803 21.7652 19.3636 21.3636H20.7727C20.6667 21.9583 20.4735 22.4905 20.1932 22.9602C19.9129 23.4299 19.5644 23.8295 19.1477 24.1591C18.7311 24.4848 18.2633 24.733 17.7443 24.9034C17.2292 25.0739 16.678 25.1591 16.0909 25.1591C15.0985 25.1591 14.2159 24.9167 13.4432 24.4318C12.6705 23.947 12.0625 23.2576 11.6193 22.3636C11.1761 21.4697 10.9545 20.4091 10.9545 19.1818C10.9545 17.9545 11.1761 16.8939 11.6193 16C12.0625 15.1061 12.6705 14.4167 13.4432 13.9318C14.2159 13.447 15.0985 13.2045 16.0909 13.2045C16.678 13.2045 17.2292 13.2898 17.7443 13.4602C18.2633 13.6307 18.7311 13.8807 19.1477 14.2102C19.5644 14.536 19.9129 14.9337 20.1932 15.4034C20.4735 15.8693 20.6667 16.4015 20.7727 17ZM26.527 25.1818C25.6861 25.1818 24.9607 24.9962 24.3509 24.625C23.7448 24.25 23.277 23.7273 22.9474 23.0568C22.6217 22.3826 22.4588 21.5985 22.4588 20.7045C22.4588 19.8106 22.6217 19.0227 22.9474 18.3409C23.277 17.6553 23.7353 17.1212 24.3224 16.7386C24.9134 16.3523 25.6027 16.1591 26.3906 16.1591C26.8452 16.1591 27.294 16.2348 27.7372 16.3864C28.1804 16.5379 28.5838 16.7841 28.9474 17.125C29.3111 17.4621 29.6009 17.9091 29.8168 18.4659C30.0327 19.0227 30.1406 19.7083 30.1406 20.5227V21.0909H23.4134V19.9318H28.777C28.777 19.4394 28.6785 19 28.4815 18.6136C28.2884 18.2273 28.0118 17.9223 27.652 17.6989C27.2959 17.4754 26.8755 17.3636 26.3906 17.3636C25.8565 17.3636 25.3944 17.4962 25.0043 17.7614C24.6179 18.0227 24.3205 18.3636 24.1122 18.7841C23.9039 19.2045 23.7997 19.6553 23.7997 20.1364V20.9091C23.7997 21.5682 23.9134 22.1269 24.1406 22.5852C24.3717 23.0398 24.6918 23.3864 25.1009 23.625C25.5099 23.8598 25.9853 23.9773 26.527 23.9773C26.8793 23.9773 27.1974 23.928 27.4815 23.8295C27.7694 23.7273 28.0175 23.5758 28.2259 23.375C28.4342 23.1705 28.5952 22.9167 28.7088 22.6136L30.0043 22.9773C29.8679 23.4167 29.6387 23.803 29.3168 24.1364C28.9948 24.4659 28.5971 24.7235 28.1236 24.9091C27.6501 25.0909 27.1179 25.1818 26.527 25.1818ZM32.1804 25V16.2727H33.4759V17.5909H33.5668C33.7259 17.1591 34.0137 16.8087 34.4304 16.5398C34.8471 16.2708 35.3168 16.1364 35.8395 16.1364C35.938 16.1364 36.0611 16.1383 36.2088 16.142C36.3565 16.1458 36.4683 16.1515 36.544 16.1591V17.5227C36.4986 17.5114 36.3944 17.4943 36.2315 17.4716C36.0724 17.4451 35.9039 17.4318 35.7259 17.4318C35.3016 17.4318 34.9228 17.5208 34.5895 17.6989C34.2599 17.8731 33.9986 18.1155 33.8054 18.4261C33.616 18.733 33.5213 19.0833 33.5213 19.4773V25H32.1804ZM42.4759 16.2727V17.4091H37.9531V16.2727H42.4759ZM39.2713 14.1818H40.6122V22.5C40.6122 22.8788 40.6671 23.1629 40.777 23.3523C40.8906 23.5379 41.0346 23.6629 41.2088 23.7273C41.3868 23.7879 41.5743 23.8182 41.7713 23.8182C41.919 23.8182 42.0402 23.8106 42.1349 23.7955C42.2296 23.7765 42.3054 23.7614 42.3622 23.75L42.6349 24.9545C42.544 24.9886 42.4171 25.0227 42.2543 25.0568C42.0914 25.0947 41.8849 25.1136 41.6349 25.1136C41.2562 25.1136 40.8849 25.0322 40.5213 24.8693C40.1615 24.7064 39.8622 24.4583 39.6236 24.125C39.3887 23.7917 39.2713 23.3712 39.2713 22.8636V14.1818ZM44.4929 25V16.2727H45.8338V25H44.4929ZM45.1747 14.8182C44.9134 14.8182 44.688 14.7292 44.4986 14.5511C44.313 14.3731 44.2202 14.1591 44.2202 13.9091C44.2202 13.6591 44.313 13.4451 44.4986 13.267C44.688 13.089 44.9134 13 45.1747 13C45.4361 13 45.6596 13.089 45.8452 13.267C46.0346 13.4451 46.1293 13.6591 46.1293 13.9091C46.1293 14.1591 46.0346 14.3731 45.8452 14.5511C45.6596 14.7292 45.4361 14.8182 45.1747 14.8182ZM52.1761 16.2727V17.4091H47.4716V16.2727H52.1761ZM48.8807 25V15.0682C48.8807 14.5682 48.9981 14.1515 49.233 13.8182C49.4678 13.4848 49.7727 13.2348 50.1477 13.0682C50.5227 12.9015 50.9186 12.8182 51.3352 12.8182C51.6648 12.8182 51.9337 12.8447 52.142 12.8977C52.3504 12.9508 52.5057 13 52.608 13.0455L52.2216 14.2045C52.1534 14.1818 52.0587 14.1534 51.9375 14.1193C51.8201 14.0852 51.6648 14.0682 51.4716 14.0682C51.0284 14.0682 50.7083 14.1799 50.5114 14.4034C50.3182 14.6269 50.2216 14.9545 50.2216 15.3864V25H48.8807ZM54.0554 25V16.2727H55.3963V25H54.0554ZM54.7372 14.8182C54.4759 14.8182 54.2505 14.7292 54.0611 14.5511C53.8755 14.3731 53.7827 14.1591 53.7827 13.9091C53.7827 13.6591 53.8755 13.4451 54.0611 13.267C54.2505 13.089 54.4759 13 54.7372 13C54.9986 13 55.2221 13.089 55.4077 13.267C55.5971 13.4451 55.6918 13.6591 55.6918 13.9091C55.6918 14.1591 55.5971 14.3731 55.4077 14.5511C55.2221 14.7292 54.9986 14.8182 54.7372 14.8182ZM61.3977 25.1818C60.5795 25.1818 59.875 24.9886 59.2841 24.6023C58.6932 24.2159 58.2386 23.6837 57.9205 23.0057C57.6023 22.3277 57.4432 21.553 57.4432 20.6818C57.4432 19.7955 57.6061 19.0133 57.9318 18.3352C58.2614 17.6534 58.7197 17.1212 59.3068 16.7386C59.8977 16.3523 60.5871 16.1591 61.375 16.1591C61.9886 16.1591 62.5417 16.2727 63.0341 16.5C63.5265 16.7273 63.9299 17.0455 64.2443 17.4545C64.5587 17.8636 64.7538 18.3409 64.8295 18.8864H63.4886C63.3864 18.4886 63.1591 18.1364 62.8068 17.8295C62.4583 17.5189 61.9886 17.3636 61.3977 17.3636C60.875 17.3636 60.4167 17.5 60.0227 17.7727C59.6326 18.0417 59.3277 18.4223 59.108 18.9148C58.892 19.4034 58.7841 19.9773 58.7841 20.6364C58.7841 21.3106 58.8902 21.8977 59.1023 22.3977C59.3182 22.8977 59.6212 23.286 60.0114 23.5625C60.4053 23.839 60.8674 23.9773 61.3977 23.9773C61.7462 23.9773 62.0625 23.9167 62.3466 23.7955C62.6307 23.6742 62.8712 23.5 63.0682 23.2727C63.2652 23.0455 63.4053 22.7727 63.4886 22.4545H64.8295C64.7538 22.9697 64.5663 23.4337 64.267 23.8466C63.9716 24.2557 63.5795 24.5814 63.0909 24.8239C62.6061 25.0625 62.0417 25.1818 61.3977 25.1818ZM69.358 25.2045C68.8049 25.2045 68.303 25.1004 67.8523 24.892C67.4015 24.6799 67.0436 24.375 66.7784 23.9773C66.5133 23.5758 66.3807 23.0909 66.3807 22.5227C66.3807 22.0227 66.4792 21.6174 66.6761 21.3068C66.8731 20.9924 67.1364 20.7462 67.4659 20.5682C67.7955 20.3902 68.1591 20.2576 68.5568 20.1705C68.9583 20.0795 69.3617 20.0076 69.767 19.9545C70.2973 19.8864 70.7273 19.8352 71.0568 19.8011C71.3902 19.7633 71.6326 19.7008 71.7841 19.6136C71.9394 19.5265 72.017 19.375 72.017 19.1591V19.1136C72.017 18.553 71.8636 18.1174 71.5568 17.8068C71.2538 17.4962 70.7936 17.3409 70.1761 17.3409C69.536 17.3409 69.0341 17.4811 68.6705 17.7614C68.3068 18.0417 68.0511 18.3409 67.9034 18.6591L66.6307 18.2045C66.858 17.6742 67.161 17.2614 67.5398 16.9659C67.9223 16.6667 68.339 16.4583 68.7898 16.3409C69.2443 16.2197 69.6913 16.1591 70.1307 16.1591C70.411 16.1591 70.733 16.1932 71.0966 16.2614C71.464 16.3258 71.8182 16.4602 72.1591 16.6648C72.5038 16.8693 72.7898 17.178 73.017 17.5909C73.2443 18.0038 73.358 18.5568 73.358 19.25V25H72.017V23.8182H71.9489C71.858 24.0076 71.7064 24.2102 71.4943 24.4261C71.2822 24.642 71 24.8258 70.6477 24.9773C70.2955 25.1288 69.8655 25.2045 69.358 25.2045ZM69.5625 24C70.0928 24 70.5398 23.8958 70.9034 23.6875C71.2708 23.4792 71.5473 23.2102 71.733 22.8807C71.9223 22.5511 72.017 22.2045 72.017 21.8409V20.6136C71.9602 20.6818 71.8352 20.7443 71.642 20.8011C71.4527 20.8542 71.233 20.9015 70.983 20.9432C70.7367 20.9811 70.4962 21.0152 70.2614 21.0455C70.0303 21.072 69.8428 21.0947 69.6989 21.1136C69.3504 21.1591 69.0246 21.233 68.7216 21.3352C68.4223 21.4337 68.1799 21.5833 67.9943 21.7841C67.8125 21.9811 67.7216 22.25 67.7216 22.5909C67.7216 23.0568 67.8939 23.4091 68.2386 23.6477C68.5871 23.8826 69.0284 24 69.5625 24ZM79.6009 16.2727V17.4091H75.0781V16.2727H79.6009ZM76.3963 14.1818H77.7372V22.5C77.7372 22.8788 77.7921 23.1629 77.902 23.3523C78.0156 23.5379 78.1596 23.6629 78.3338 23.7273C78.5118 23.7879 78.6993 23.8182 78.8963 23.8182C79.044 23.8182 79.1652 23.8106 79.2599 23.7955C79.3546 23.7765 79.4304 23.7614 79.4872 23.75L79.7599 24.9545C79.669 24.9886 79.5421 25.0227 79.3793 25.0568C79.2164 25.0947 79.0099 25.1136 78.7599 25.1136C78.3812 25.1136 78.0099 25.0322 77.6463 24.8693C77.2865 24.7064 76.9872 24.4583 76.7486 24.125C76.5137 23.7917 76.3963 23.3712 76.3963 22.8636V14.1818ZM85.1832 25.1818C84.3423 25.1818 83.617 24.9962 83.0071 24.625C82.401 24.25 81.9332 23.7273 81.6037 23.0568C81.2779 22.3826 81.1151 21.5985 81.1151 20.7045C81.1151 19.8106 81.2779 19.0227 81.6037 18.3409C81.9332 17.6553 82.3916 17.1212 82.9787 16.7386C83.5696 16.3523 84.259 16.1591 85.0469 16.1591C85.5014 16.1591 85.9503 16.2348 86.3935 16.3864C86.8366 16.5379 87.2401 16.7841 87.6037 17.125C87.9673 17.4621 88.2571 17.9091 88.473 18.4659C88.6889 19.0227 88.7969 19.7083 88.7969 20.5227V21.0909H82.0696V19.9318H87.4332C87.4332 19.4394 87.3348 19 87.1378 18.6136C86.9446 18.2273 86.6681 17.9223 86.3082 17.6989C85.9522 17.4754 85.5317 17.3636 85.0469 17.3636C84.5128 17.3636 84.0507 17.4962 83.6605 17.7614C83.2741 18.0227 82.9768 18.3636 82.7685 18.7841C82.5601 19.2045 82.456 19.6553 82.456 20.1364V20.9091C82.456 21.5682 82.5696 22.1269 82.7969 22.5852C83.0279 23.0398 83.348 23.3864 83.7571 23.625C84.1662 23.8598 84.6416 23.9773 85.1832 23.9773C85.5355 23.9773 85.8537 23.928 86.1378 23.8295C86.4257 23.7273 86.6738 23.5758 86.8821 23.375C87.0904 23.1705 87.2514 22.9167 87.3651 22.6136L88.6605 22.9773C88.5241 23.4167 88.295 23.803 87.973 24.1364C87.651 24.4659 87.2533 24.7235 86.7798 24.9091C86.3063 25.0909 85.7741 25.1818 85.1832 25.1818Z" fill="#505050"/>
<rect x="204" width="322.38" height="36" fill="white"/>
<line x1="204.5" x2="204.5" y2="36" stroke="#E0E7E9"/>
<path d="M216.818 12.3636V24H215.409V12.3636H216.818ZM225.807 15.2727C225.739 14.697 225.462 14.25 224.978 13.9318C224.493 13.6136 223.898 13.4545 223.193 13.4545C222.678 13.4545 222.228 13.5379 221.841 13.7045C221.459 13.8712 221.159 14.1004 220.943 14.392C220.731 14.6837 220.625 15.0152 220.625 15.3864C220.625 15.697 220.699 15.964 220.847 16.1875C220.998 16.4072 221.192 16.5909 221.426 16.7386C221.661 16.8826 221.907 17.0019 222.165 17.0966C222.423 17.1875 222.659 17.2614 222.875 17.3182L224.057 17.6364C224.36 17.7159 224.697 17.8258 225.068 17.9659C225.443 18.1061 225.801 18.2973 226.142 18.5398C226.487 18.7784 226.771 19.0852 226.995 19.4602C227.218 19.8352 227.33 20.2955 227.33 20.8409C227.33 21.4697 227.165 22.0379 226.836 22.5455C226.51 23.053 226.032 23.4564 225.404 23.7557C224.779 24.0549 224.019 24.2045 223.125 24.2045C222.292 24.2045 221.57 24.0701 220.961 23.8011C220.354 23.5322 219.877 23.1572 219.529 22.6761C219.184 22.1951 218.989 21.6364 218.943 21H220.398C220.436 21.4394 220.584 21.803 220.841 22.0909C221.103 22.375 221.432 22.5871 221.83 22.7273C222.231 22.8636 222.663 22.9318 223.125 22.9318C223.663 22.9318 224.146 22.8447 224.574 22.6705C225.002 22.4924 225.341 22.2462 225.591 21.9318C225.841 21.6136 225.966 21.2424 225.966 20.8182C225.966 20.4318 225.858 20.1174 225.642 19.875C225.426 19.6326 225.142 19.4356 224.79 19.2841C224.438 19.1326 224.057 19 223.648 18.8864L222.216 18.4773C221.307 18.2159 220.587 17.8428 220.057 17.358C219.527 16.8731 219.262 16.2386 219.262 15.4545C219.262 14.803 219.438 14.2348 219.79 13.75C220.146 13.2614 220.623 12.8826 221.222 12.6136C221.824 12.3409 222.496 12.2045 223.239 12.2045C223.989 12.2045 224.656 12.339 225.239 12.608C225.822 12.8731 226.284 13.2367 226.625 13.6989C226.97 14.161 227.152 14.6856 227.171 15.2727H225.807ZM239.265 18.1818C239.265 19.4091 239.043 20.4697 238.6 21.3636C238.157 22.2576 237.549 22.947 236.776 23.4318C236.003 23.9167 235.121 24.1591 234.128 24.1591C233.136 24.1591 232.253 23.9167 231.481 23.4318C230.708 22.947 230.1 22.2576 229.657 21.3636C229.214 20.4697 228.992 19.4091 228.992 18.1818C228.992 16.9545 229.214 15.8939 229.657 15C230.1 14.1061 230.708 13.4167 231.481 12.9318C232.253 12.447 233.136 12.2045 234.128 12.2045C235.121 12.2045 236.003 12.447 236.776 12.9318C237.549 13.4167 238.157 14.1061 238.6 15C239.043 15.8939 239.265 16.9545 239.265 18.1818ZM237.901 18.1818C237.901 17.1742 237.733 16.3239 237.395 15.6307C237.062 14.9375 236.609 14.4129 236.038 14.0568C235.469 13.7008 234.833 13.5227 234.128 13.5227C233.424 13.5227 232.786 13.7008 232.214 14.0568C231.645 14.4129 231.193 14.9375 230.856 15.6307C230.522 16.3239 230.356 17.1742 230.356 18.1818C230.356 19.1894 230.522 20.0398 230.856 20.733C231.193 21.4261 231.645 21.9508 232.214 22.3068C232.786 22.6629 233.424 22.8409 234.128 22.8409C234.833 22.8409 235.469 22.6629 236.038 22.3068C236.609 21.9508 237.062 21.4261 237.395 20.733C237.733 20.0398 237.901 19.1894 237.901 18.1818ZM246.252 17.5568V18.8068H241.161V17.5568H246.252ZM252.116 24.1591C251.336 24.1591 250.646 24.0208 250.048 23.7443C249.453 23.464 248.989 23.0795 248.656 22.5909C248.323 22.0985 248.158 21.5379 248.162 20.9091C248.158 20.4167 248.254 19.9621 248.451 19.5455C248.648 19.125 248.917 18.7746 249.258 18.4943C249.603 18.2102 249.987 18.0303 250.412 17.9545V17.8864C249.855 17.7424 249.412 17.4299 249.082 16.9489C248.753 16.464 248.59 15.9129 248.593 15.2955C248.59 14.7045 248.739 14.1761 249.042 13.7102C249.345 13.2443 249.762 12.8769 250.292 12.608C250.826 12.339 251.434 12.2045 252.116 12.2045C252.79 12.2045 253.393 12.339 253.923 12.608C254.453 12.8769 254.87 13.2443 255.173 13.7102C255.48 14.1761 255.635 14.7045 255.639 15.2955C255.635 15.9129 255.467 16.464 255.133 16.9489C254.804 17.4299 254.366 17.7424 253.821 17.8864V17.9545C254.241 18.0303 254.62 18.2102 254.957 18.4943C255.294 18.7746 255.563 19.125 255.764 19.5455C255.965 19.9621 256.067 20.4167 256.071 20.9091C256.067 21.5379 255.896 22.0985 255.559 22.5909C255.226 23.0795 254.762 23.464 254.167 23.7443C253.576 24.0208 252.893 24.1591 252.116 24.1591ZM252.116 22.9091C252.643 22.9091 253.097 22.8239 253.48 22.6534C253.862 22.483 254.158 22.2424 254.366 21.9318C254.575 21.6212 254.681 21.2576 254.684 20.8409C254.681 20.4015 254.567 20.0133 254.343 19.6761C254.12 19.339 253.815 19.0739 253.429 18.8807C253.046 18.6875 252.609 18.5909 252.116 18.5909C251.62 18.5909 251.177 18.6875 250.787 18.8807C250.4 19.0739 250.095 19.339 249.872 19.6761C249.652 20.0133 249.544 20.4015 249.548 20.8409C249.544 21.2576 249.645 21.6212 249.849 21.9318C250.057 22.2424 250.355 22.483 250.741 22.6534C251.128 22.8239 251.586 22.9091 252.116 22.9091ZM252.116 17.3864C252.533 17.3864 252.902 17.303 253.224 17.1364C253.55 16.9697 253.806 16.7367 253.991 16.4375C254.177 16.1383 254.271 15.7879 254.275 15.3864C254.271 14.9924 254.179 14.6496 253.997 14.358C253.815 14.0625 253.563 13.8352 253.241 13.6761C252.919 13.5133 252.544 13.4318 252.116 13.4318C251.681 13.4318 251.3 13.5133 250.974 13.6761C250.648 13.8352 250.396 14.0625 250.218 14.358C250.04 14.6496 249.953 14.9924 249.957 15.3864C249.953 15.7879 250.042 16.1383 250.224 16.4375C250.41 16.7367 250.665 16.9697 250.991 17.1364C251.317 17.303 251.692 17.3864 252.116 17.3864ZM261.753 12.2045C262.23 12.2083 262.707 12.2992 263.185 12.4773C263.662 12.6553 264.098 12.9508 264.491 13.3636C264.885 13.7727 265.202 14.3314 265.44 15.0398C265.679 15.7481 265.798 16.6364 265.798 17.7045C265.798 18.7386 265.7 19.6572 265.503 20.4602C265.31 21.2595 265.029 21.9337 264.662 22.483C264.298 23.0322 263.855 23.4489 263.332 23.733C262.813 24.017 262.226 24.1591 261.571 24.1591C260.92 24.1591 260.338 24.0303 259.827 23.7727C259.319 23.5114 258.902 23.1496 258.577 22.6875C258.255 22.2216 258.048 21.6818 257.957 21.0682H259.344C259.469 21.6023 259.717 22.0436 260.088 22.392C260.463 22.7367 260.957 22.9091 261.571 22.9091C262.469 22.9091 263.177 22.517 263.696 21.733C264.219 20.9489 264.48 19.8409 264.48 18.4091H264.389C264.177 18.7273 263.925 19.0019 263.634 19.233C263.342 19.464 263.018 19.642 262.662 19.767C262.306 19.892 261.927 19.9545 261.526 19.9545C260.859 19.9545 260.247 19.7898 259.69 19.4602C259.137 19.1269 258.694 18.6705 258.361 18.0909C258.031 17.5076 257.866 16.8409 257.866 16.0909C257.866 15.3788 258.026 14.7273 258.344 14.1364C258.666 13.5417 259.116 13.0682 259.696 12.7159C260.279 12.3636 260.965 12.1932 261.753 12.2045ZM261.753 13.4545C261.276 13.4545 260.846 13.5739 260.463 13.8125C260.084 14.0473 259.783 14.3655 259.56 14.767C259.34 15.1648 259.23 15.6061 259.23 16.0909C259.23 16.5758 259.336 17.017 259.548 17.4148C259.764 17.8087 260.058 18.1231 260.429 18.358C260.804 18.589 261.23 18.7045 261.707 18.7045C262.067 18.7045 262.402 18.6345 262.713 18.4943C263.024 18.3504 263.295 18.1553 263.526 17.9091C263.76 17.6591 263.944 17.3769 264.077 17.0625C264.209 16.7443 264.276 16.4129 264.276 16.0682C264.276 15.6136 264.166 15.1875 263.946 14.7898C263.73 14.392 263.431 14.0701 263.048 13.8239C262.67 13.5777 262.238 13.4545 261.753 13.4545ZM271.56 24.1591C270.78 24.1591 270.09 24.0208 269.492 23.7443C268.897 23.464 268.433 23.0795 268.1 22.5909C267.766 22.0985 267.602 21.5379 267.605 20.9091C267.602 20.4167 267.698 19.9621 267.895 19.5455C268.092 19.125 268.361 18.7746 268.702 18.4943C269.047 18.2102 269.431 18.0303 269.855 17.9545V17.8864C269.299 17.7424 268.855 17.4299 268.526 16.9489C268.196 16.464 268.033 15.9129 268.037 15.2955C268.033 14.7045 268.183 14.1761 268.486 13.7102C268.789 13.2443 269.206 12.8769 269.736 12.608C270.27 12.339 270.878 12.2045 271.56 12.2045C272.234 12.2045 272.836 12.339 273.367 12.608C273.897 12.8769 274.314 13.2443 274.617 13.7102C274.924 14.1761 275.079 14.7045 275.083 15.2955C275.079 15.9129 274.91 16.464 274.577 16.9489C274.247 17.4299 273.81 17.7424 273.264 17.8864V17.9545C273.685 18.0303 274.064 18.2102 274.401 18.4943C274.738 18.7746 275.007 19.125 275.208 19.5455C275.408 19.9621 275.511 20.4167 275.514 20.9091C275.511 21.5379 275.34 22.0985 275.003 22.5909C274.67 23.0795 274.206 23.464 273.611 23.7443C273.02 24.0208 272.336 24.1591 271.56 24.1591ZM271.56 22.9091C272.086 22.9091 272.541 22.8239 272.924 22.6534C273.306 22.483 273.602 22.2424 273.81 21.9318C274.018 21.6212 274.124 21.2576 274.128 20.8409C274.124 20.4015 274.011 20.0133 273.787 19.6761C273.564 19.339 273.259 19.0739 272.872 18.8807C272.49 18.6875 272.052 18.5909 271.56 18.5909C271.064 18.5909 270.621 18.6875 270.23 18.8807C269.844 19.0739 269.539 19.339 269.316 19.6761C269.096 20.0133 268.988 20.4015 268.992 20.8409C268.988 21.2576 269.088 21.6212 269.293 21.9318C269.501 22.2424 269.799 22.483 270.185 22.6534C270.571 22.8239 271.03 22.9091 271.56 22.9091ZM271.56 17.3864C271.977 17.3864 272.346 17.303 272.668 17.1364C272.994 16.9697 273.249 16.7367 273.435 16.4375C273.621 16.1383 273.715 15.7879 273.719 15.3864C273.715 14.9924 273.622 14.6496 273.441 14.358C273.259 14.0625 273.007 13.8352 272.685 13.6761C272.363 13.5133 271.988 13.4318 271.56 13.4318C271.124 13.4318 270.744 13.5133 270.418 13.6761C270.092 13.8352 269.84 14.0625 269.662 14.358C269.484 14.6496 269.397 14.9924 269.401 15.3864C269.397 15.7879 269.486 16.1383 269.668 16.4375C269.854 16.7367 270.109 16.9697 270.435 17.1364C270.761 17.303 271.136 17.3864 271.56 17.3864ZM281.197 12.2045C281.674 12.2083 282.151 12.2992 282.628 12.4773C283.106 12.6553 283.541 12.9508 283.935 13.3636C284.329 13.7727 284.645 14.3314 284.884 15.0398C285.123 15.7481 285.242 16.6364 285.242 17.7045C285.242 18.7386 285.144 19.6572 284.947 20.4602C284.753 21.2595 284.473 21.9337 284.106 22.483C283.742 23.0322 283.299 23.4489 282.776 23.733C282.257 24.017 281.67 24.1591 281.015 24.1591C280.363 24.1591 279.782 24.0303 279.27 23.7727C278.763 23.5114 278.346 23.1496 278.02 22.6875C277.698 22.2216 277.492 21.6818 277.401 21.0682H278.787C278.912 21.6023 279.161 22.0436 279.532 22.392C279.907 22.7367 280.401 22.9091 281.015 22.9091C281.912 22.9091 282.621 22.517 283.14 21.733C283.662 20.9489 283.924 19.8409 283.924 18.4091H283.833C283.621 18.7273 283.369 19.0019 283.077 19.233C282.786 19.464 282.462 19.642 282.106 19.767C281.75 19.892 281.371 19.9545 280.969 19.9545C280.303 19.9545 279.691 19.7898 279.134 19.4602C278.581 19.1269 278.138 18.6705 277.805 18.0909C277.475 17.5076 277.31 16.8409 277.31 16.0909C277.31 15.3788 277.469 14.7273 277.787 14.1364C278.109 13.5417 278.56 13.0682 279.14 12.7159C279.723 12.3636 280.409 12.1932 281.197 12.2045ZM281.197 13.4545C280.719 13.4545 280.289 13.5739 279.907 13.8125C279.528 14.0473 279.227 14.3655 279.003 14.767C278.784 15.1648 278.674 15.6061 278.674 16.0909C278.674 16.5758 278.78 17.017 278.992 17.4148C279.208 17.8087 279.502 18.1231 279.873 18.358C280.248 18.589 280.674 18.7045 281.151 18.7045C281.511 18.7045 281.846 18.6345 282.157 18.4943C282.467 18.3504 282.738 18.1553 282.969 17.9091C283.204 17.6591 283.388 17.3769 283.52 17.0625C283.653 16.7443 283.719 16.4129 283.719 16.0682C283.719 15.6136 283.609 15.1875 283.39 14.7898C283.174 14.392 282.875 14.0701 282.492 13.8239C282.113 13.5777 281.681 13.4545 281.197 13.4545ZM287.276 24V22.9773L291.117 18.7727C291.568 18.2803 291.939 17.8523 292.231 17.4886C292.523 17.1212 292.739 16.7765 292.879 16.4545C293.023 16.1288 293.095 15.7879 293.095 15.4318C293.095 15.0227 292.996 14.6686 292.799 14.3693C292.606 14.0701 292.341 13.839 292.004 13.6761C291.667 13.5133 291.288 13.4318 290.867 13.4318C290.42 13.4318 290.03 13.5246 289.697 13.7102C289.367 13.892 289.112 14.1477 288.93 14.4773C288.752 14.8068 288.663 15.1932 288.663 15.6364H287.322C287.322 14.9545 287.479 14.3561 287.793 13.8409C288.108 13.3258 288.536 12.9242 289.078 12.6364C289.623 12.3485 290.235 12.2045 290.913 12.2045C291.595 12.2045 292.199 12.3485 292.725 12.6364C293.252 12.9242 293.665 13.3125 293.964 13.8011C294.263 14.2898 294.413 14.8333 294.413 15.4318C294.413 15.8598 294.335 16.2784 294.18 16.6875C294.028 17.0928 293.763 17.5455 293.384 18.0455C293.009 18.5417 292.489 19.1477 291.822 19.8636L289.208 22.6591V22.75H294.617V24H287.276ZM300.855 12.3636V24H299.446V13.8409H299.378L296.537 15.7273V14.2955L299.446 12.3636H300.855ZM304.001 24V22.9773L307.842 18.7727C308.293 18.2803 308.664 17.8523 308.956 17.4886C309.248 17.1212 309.464 16.7765 309.604 16.4545C309.748 16.1288 309.82 15.7879 309.82 15.4318C309.82 15.0227 309.721 14.6686 309.524 14.3693C309.331 14.0701 309.066 13.839 308.729 13.6761C308.392 13.5133 308.013 13.4318 307.592 13.4318C307.145 13.4318 306.755 13.5246 306.422 13.7102C306.092 13.892 305.837 14.1477 305.655 14.4773C305.477 14.8068 305.388 15.1932 305.388 15.6364H304.047C304.047 14.9545 304.204 14.3561 304.518 13.8409C304.833 13.3258 305.261 12.9242 305.803 12.6364C306.348 12.3485 306.96 12.2045 307.638 12.2045C308.32 12.2045 308.924 12.3485 309.45 12.6364C309.977 12.9242 310.39 13.3125 310.689 13.8011C310.988 14.2898 311.138 14.8333 311.138 15.4318C311.138 15.8598 311.06 16.2784 310.905 16.6875C310.753 17.0928 310.488 17.5455 310.109 18.0455C309.734 18.5417 309.214 19.1477 308.547 19.8636L305.933 22.6591V22.75H311.342V24H304.001ZM317.58 12.3636V24H316.171V13.8409H316.103L313.262 15.7273V14.2955L316.171 12.3636H317.58ZM320.726 24V22.9773L324.567 18.7727C325.018 18.2803 325.389 17.8523 325.681 17.4886C325.973 17.1212 326.189 16.7765 326.329 16.4545C326.473 16.1288 326.545 15.7879 326.545 15.4318C326.545 15.0227 326.446 14.6686 326.249 14.3693C326.056 14.0701 325.791 13.839 325.454 13.6761C325.117 13.5133 324.738 13.4318 324.317 13.4318C323.87 13.4318 323.48 13.5246 323.147 13.7102C322.817 13.892 322.562 14.1477 322.38 14.4773C322.202 14.8068 322.113 15.1932 322.113 15.6364H320.772C320.772 14.9545 320.929 14.3561 321.243 13.8409C321.558 13.3258 321.986 12.9242 322.528 12.6364C323.073 12.3485 323.685 12.2045 324.363 12.2045C325.045 12.2045 325.649 12.3485 326.175 12.6364C326.702 12.9242 327.115 13.3125 327.414 13.8011C327.713 14.2898 327.863 14.8333 327.863 15.4318C327.863 15.8598 327.785 16.2784 327.63 16.6875C327.478 17.0928 327.213 17.5455 326.834 18.0455C326.459 18.5417 325.939 19.1477 325.272 19.8636L322.658 22.6591V22.75H328.067V24H320.726Z" fill="#505050"/>
<line y1="0.5" x2="567" y2="0.5" stroke="#E0E7E9"/>
</svg>
