<svg width="567" height="36" viewBox="0 0 567 36" fill="none" xmlns="http://www.w3.org/2000/svg">
<rect width="204" height="36" fill="#EFF2F4"/>
<path d="M11.4091 13.3636H13.0909L17.0455 23.0227H17.1818L21.1364 13.3636H22.8182V25H21.5V16.1591H21.3864L17.75 25H16.4773L12.8409 16.1591H12.7273V25H11.4091V13.3636ZM29.1207 25.1818C28.2798 25.1818 27.5545 24.9962 26.9446 24.625C26.3385 24.25 25.8707 23.7273 25.5412 23.0568C25.2154 22.3826 25.0526 21.5985 25.0526 20.7045C25.0526 19.8106 25.2154 19.0227 25.5412 18.3409C25.8707 17.6553 26.3291 17.1212 26.9162 16.7386C27.5071 16.3523 28.1965 16.1591 28.9844 16.1591C29.4389 16.1591 29.8878 16.2348 30.331 16.3864C30.7741 16.5379 31.1776 16.7841 31.5412 17.125C31.9048 17.4621 32.1946 17.9091 32.4105 18.4659C32.6264 19.0227 32.7344 19.7083 32.7344 20.5227V21.0909H26.0071V19.9318H31.3707C31.3707 19.4394 31.2723 19 31.0753 18.6136C30.8821 18.2273 30.6056 17.9223 30.2457 17.6989C29.8897 17.4754 29.4692 17.3636 28.9844 17.3636C28.4503 17.3636 27.9882 17.4962 27.598 17.7614C27.2116 18.0227 26.9143 18.3636 26.706 18.7841C26.4976 19.2045 26.3935 19.6553 26.3935 20.1364V20.9091C26.3935 21.5682 26.5071 22.1269 26.7344 22.5852C26.9654 23.0398 27.2855 23.3864 27.6946 23.625C28.1037 23.8598 28.5791 23.9773 29.1207 23.9773C29.473 23.9773 29.7912 23.928 30.0753 23.8295C30.3632 23.7273 30.6113 23.5758 30.8196 23.375C31.0279 23.1705 31.1889 22.9167 31.3026 22.6136L32.598 22.9773C32.4616 23.4167 32.2325 23.803 31.9105 24.1364C31.5885 24.4659 31.1908 24.7235 30.7173 24.9091C30.2438 25.0909 29.7116 25.1818 29.1207 25.1818ZM34.7741 25V16.2727H36.0696V17.6364H36.1832C36.3651 17.1705 36.6586 16.8087 37.0639 16.5511C37.4692 16.2898 37.956 16.1591 38.5241 16.1591C39.0999 16.1591 39.5791 16.2898 39.9616 16.5511C40.348 16.8087 40.6491 17.1705 40.8651 17.6364H40.956C41.1795 17.1856 41.5147 16.8277 41.9616 16.5625C42.4086 16.2936 42.9446 16.1591 43.5696 16.1591C44.3499 16.1591 44.9882 16.4034 45.4844 16.892C45.9806 17.3769 46.2287 18.1326 46.2287 19.1591V25H44.8878V19.1591C44.8878 18.5152 44.7116 18.0549 44.3594 17.7784C44.0071 17.5019 43.5923 17.3636 43.1151 17.3636C42.5014 17.3636 42.026 17.5492 41.6889 17.9205C41.3518 18.2879 41.1832 18.7538 41.1832 19.3182V25H39.8196V19.0227C39.8196 18.5265 39.6586 18.1269 39.3366 17.8239C39.0147 17.517 38.5999 17.3636 38.0923 17.3636C37.7438 17.3636 37.4181 17.4564 37.1151 17.642C36.8158 17.8277 36.5734 18.0852 36.3878 18.4148C36.206 18.7405 36.1151 19.1174 36.1151 19.5455V25H34.7741ZM52.2259 25.1818C51.438 25.1818 50.7467 24.9943 50.152 24.6193C49.5611 24.2443 49.099 23.7197 48.7656 23.0455C48.4361 22.3712 48.2713 21.5833 48.2713 20.6818C48.2713 19.7727 48.4361 18.9792 48.7656 18.3011C49.099 17.6231 49.5611 17.0966 50.152 16.7216C50.7467 16.3466 51.438 16.1591 52.2259 16.1591C53.0137 16.1591 53.7031 16.3466 54.294 16.7216C54.8887 17.0966 55.3509 17.6231 55.6804 18.3011C56.0137 18.9792 56.1804 19.7727 56.1804 20.6818C56.1804 21.5833 56.0137 22.3712 55.6804 23.0455C55.3509 23.7197 54.8887 24.2443 54.294 24.6193C53.7031 24.9943 53.0137 25.1818 52.2259 25.1818ZM52.2259 23.9773C52.8243 23.9773 53.3168 23.8239 53.7031 23.517C54.0895 23.2102 54.3755 22.8068 54.5611 22.3068C54.7467 21.8068 54.8395 21.2652 54.8395 20.6818C54.8395 20.0985 54.7467 19.5549 54.5611 19.0511C54.3755 18.5473 54.0895 18.1402 53.7031 17.8295C53.3168 17.5189 52.8243 17.3636 52.2259 17.3636C51.6274 17.3636 51.1349 17.5189 50.7486 17.8295C50.3622 18.1402 50.0762 18.5473 49.8906 19.0511C49.705 19.5549 49.6122 20.0985 49.6122 20.6818C49.6122 21.2652 49.705 21.8068 49.8906 22.3068C50.0762 22.8068 50.3622 23.2102 50.7486 23.517C51.1349 23.8239 51.6274 23.9773 52.2259 23.9773ZM58.2273 25V16.2727H59.5227V17.5909H59.6136C59.7727 17.1591 60.0606 16.8087 60.4773 16.5398C60.8939 16.2708 61.3636 16.1364 61.8864 16.1364C61.9848 16.1364 62.108 16.1383 62.2557 16.142C62.4034 16.1458 62.5152 16.1515 62.5909 16.1591V17.5227C62.5455 17.5114 62.4413 17.4943 62.2784 17.4716C62.1193 17.4451 61.9508 17.4318 61.7727 17.4318C61.3485 17.4318 60.9697 17.5208 60.6364 17.6989C60.3068 17.8731 60.0455 18.1155 59.8523 18.4261C59.6629 18.733 59.5682 19.0833 59.5682 19.4773V25H58.2273ZM65.3097 28.2727C65.0824 28.2727 64.8797 28.2538 64.7017 28.2159C64.5237 28.1818 64.4006 28.1477 64.3324 28.1136L64.6733 26.9318C64.9991 27.0152 65.2869 27.0455 65.5369 27.0227C65.7869 27 66.0085 26.8883 66.2017 26.6875C66.3987 26.4905 66.5786 26.1705 66.7415 25.7273L66.9915 25.0455L63.7642 16.2727H65.2188L67.6278 23.2273H67.7188L70.1278 16.2727H71.5824L67.8778 26.2727C67.7112 26.7235 67.5047 27.0966 67.2585 27.392C67.0123 27.6913 66.7263 27.9129 66.4006 28.0568C66.0786 28.2008 65.715 28.2727 65.3097 28.2727Z" fill="#505050"/>
<rect x="204" width="322.38" height="36" fill="white"/>
<line x1="204.5" x2="204.5" y2="36" stroke="#E0E7E9"/>
<path d="M219.136 24.1591C218.386 24.1591 217.718 24.0303 217.131 23.7727C216.547 23.5152 216.083 23.1572 215.739 22.6989C215.398 22.2367 215.212 21.7008 215.182 21.0909H216.614C216.644 21.4659 216.773 21.7898 217 22.0625C217.227 22.3314 217.525 22.5398 217.892 22.6875C218.259 22.8352 218.667 22.9091 219.114 22.9091C219.614 22.9091 220.057 22.822 220.443 22.6477C220.83 22.4735 221.133 22.2311 221.352 21.9205C221.572 21.6098 221.682 21.25 221.682 20.8409C221.682 20.4129 221.576 20.036 221.364 19.7102C221.152 19.3807 220.841 19.1231 220.432 18.9375C220.023 18.7519 219.523 18.6591 218.932 18.6591H218V17.4091H218.932C219.394 17.4091 219.799 17.3258 220.148 17.1591C220.5 16.9924 220.775 16.7576 220.972 16.4545C221.172 16.1515 221.273 15.7955 221.273 15.3864C221.273 14.9924 221.186 14.6496 221.011 14.358C220.837 14.0663 220.591 13.839 220.273 13.6761C219.958 13.5133 219.587 13.4318 219.159 13.4318C218.758 13.4318 218.379 13.5057 218.023 13.6534C217.67 13.7973 217.383 14.0076 217.159 14.2841C216.936 14.5568 216.814 14.8864 216.795 15.2727H215.432C215.455 14.6629 215.638 14.1288 215.983 13.6705C216.328 13.2083 216.778 12.8485 217.335 12.5909C217.896 12.3333 218.511 12.2045 219.182 12.2045C219.902 12.2045 220.519 12.3504 221.034 12.642C221.549 12.9299 221.945 13.3106 222.222 13.7841C222.498 14.2576 222.636 14.7689 222.636 15.3182C222.636 15.9735 222.464 16.5322 222.119 16.9943C221.778 17.4564 221.314 17.7765 220.727 17.9545V18.0455C221.462 18.1667 222.036 18.4792 222.449 18.983C222.862 19.483 223.068 20.1023 223.068 20.8409C223.068 21.4735 222.896 22.0417 222.551 22.5455C222.21 23.0455 221.744 23.4394 221.153 23.7273C220.563 24.0152 219.89 24.1591 219.136 24.1591ZM229.056 24.1591C228.578 24.1515 228.101 24.0606 227.624 23.8864C227.147 23.7121 226.711 23.4186 226.317 23.0057C225.923 22.589 225.607 22.0265 225.368 21.3182C225.13 20.6061 225.01 19.7121 225.01 18.6364C225.01 17.6061 225.107 16.6932 225.3 15.8977C225.493 15.0985 225.773 14.4261 226.141 13.8807C226.508 13.3314 226.952 12.9148 227.47 12.6307C227.993 12.3466 228.582 12.2045 229.238 12.2045C229.889 12.2045 230.469 12.3352 230.976 12.5966C231.488 12.8542 231.904 13.214 232.226 13.6761C232.548 14.1383 232.756 14.6705 232.851 15.2727H231.465C231.336 14.75 231.086 14.3163 230.715 13.9716C230.344 13.6269 229.851 13.4545 229.238 13.4545C228.336 13.4545 227.626 13.8466 227.107 14.6307C226.592 15.4148 226.332 16.5152 226.328 17.9318H226.419C226.631 17.6098 226.883 17.3352 227.175 17.108C227.47 16.8769 227.796 16.6989 228.152 16.5739C228.508 16.4489 228.885 16.3864 229.283 16.3864C229.95 16.3864 230.559 16.553 231.113 16.8864C231.666 17.2159 232.109 17.6723 232.442 18.2557C232.775 18.8352 232.942 19.5 232.942 20.25C232.942 20.9697 232.781 21.6288 232.459 22.2273C232.137 22.822 231.684 23.2955 231.101 23.6477C230.522 23.9962 229.84 24.1667 229.056 24.1591ZM229.056 22.9091C229.533 22.9091 229.961 22.7898 230.34 22.5511C230.722 22.3125 231.023 21.9924 231.243 21.5909C231.467 21.1894 231.578 20.7424 231.578 20.25C231.578 19.7689 231.47 19.3314 231.255 18.9375C231.042 18.5398 230.749 18.2235 230.374 17.9886C230.003 17.7538 229.578 17.6364 229.101 17.6364C228.741 17.6364 228.406 17.7083 228.095 17.8523C227.785 17.9924 227.512 18.1856 227.277 18.4318C227.046 18.678 226.864 18.9602 226.732 19.2784C226.599 19.5928 226.533 19.9242 226.533 20.2727C226.533 20.7348 226.641 21.1667 226.857 21.5682C227.077 21.9697 227.376 22.2936 227.755 22.5398C228.137 22.786 228.571 22.9091 229.056 22.9091ZM243.136 16C243.011 15.6174 242.846 15.2746 242.641 14.9716C242.44 14.6648 242.2 14.4034 241.92 14.1875C241.643 13.9716 241.329 13.8068 240.976 13.6932C240.624 13.5795 240.238 13.5227 239.817 13.5227C239.128 13.5227 238.501 13.7008 237.937 14.0568C237.372 14.4129 236.923 14.9375 236.59 15.6307C236.257 16.3239 236.09 17.1742 236.09 18.1818C236.09 19.1894 236.259 20.0398 236.596 20.733C236.933 21.4261 237.389 21.9508 237.965 22.3068C238.541 22.6629 239.189 22.8409 239.908 22.8409C240.575 22.8409 241.162 22.6989 241.67 22.4148C242.181 22.1269 242.579 21.7216 242.863 21.1989C243.151 20.6723 243.295 20.053 243.295 19.3409L243.726 19.4318H240.226V18.1818H244.658V19.4318C244.658 20.3902 244.454 21.2235 244.045 21.9318C243.639 22.6402 243.079 23.1894 242.363 23.5795C241.651 23.9659 240.832 24.1591 239.908 24.1591C238.878 24.1591 237.973 23.9167 237.192 23.4318C236.416 22.947 235.81 22.2576 235.374 21.3636C234.942 20.4697 234.726 19.4091 234.726 18.1818C234.726 17.2614 234.85 16.4337 235.096 15.6989C235.346 14.9602 235.698 14.3314 236.153 13.8125C236.607 13.2936 237.145 12.8958 237.766 12.6193C238.387 12.3428 239.071 12.2045 239.817 12.2045C240.431 12.2045 241.003 12.2973 241.533 12.483C242.067 12.6648 242.543 12.9242 242.959 13.2614C243.38 13.5947 243.73 13.9943 244.011 14.4602C244.291 14.9223 244.484 15.4356 244.59 16H243.136ZM246.872 24V12.3636H250.94C251.75 12.3636 252.419 12.5038 252.945 12.7841C253.472 13.0606 253.864 13.4337 254.122 13.9034C254.379 14.3693 254.508 14.8864 254.508 15.4545C254.508 15.9545 254.419 16.3674 254.241 16.6932C254.067 17.0189 253.836 17.2765 253.548 17.4659C253.264 17.6553 252.955 17.7955 252.622 17.8864V18C252.978 18.0227 253.336 18.1477 253.695 18.375C254.055 18.6023 254.356 18.928 254.599 19.3523C254.841 19.7765 254.962 20.2955 254.962 20.9091C254.962 21.4924 254.83 22.017 254.565 22.483C254.3 22.9489 253.881 23.3182 253.309 23.5909C252.737 23.8636 251.993 24 251.076 24H246.872ZM248.281 22.75H251.076C251.997 22.75 252.65 22.572 253.036 22.2159C253.427 21.8561 253.622 21.4205 253.622 20.9091C253.622 20.5152 253.521 20.1515 253.32 19.8182C253.12 19.4811 252.834 19.2121 252.462 19.0114C252.091 18.8068 251.652 18.7045 251.144 18.7045H248.281V22.75ZM248.281 17.4773H250.894C251.319 17.4773 251.701 17.3939 252.042 17.2273C252.387 17.0606 252.659 16.8258 252.86 16.5227C253.065 16.2197 253.167 15.8636 253.167 15.4545C253.167 14.9432 252.989 14.5095 252.633 14.1534C252.277 13.7936 251.712 13.6136 250.94 13.6136H248.281V17.4773ZM261.378 24V12.3636H265.31C266.219 12.3636 266.965 12.5189 267.548 12.8295C268.132 13.1364 268.563 13.5587 268.844 14.0966C269.124 14.6345 269.264 15.2462 269.264 15.9318C269.264 16.6174 269.124 17.2254 268.844 17.7557C268.563 18.286 268.134 18.7027 267.554 19.0057C266.974 19.3049 266.234 19.4545 265.332 19.4545H262.151V18.1818H265.287C265.908 18.1818 266.408 18.0909 266.787 17.9091C267.17 17.7273 267.446 17.4697 267.616 17.1364C267.791 16.7992 267.878 16.3977 267.878 15.9318C267.878 15.4659 267.791 15.0587 267.616 14.7102C267.442 14.3617 267.164 14.0928 266.781 13.9034C266.399 13.7102 265.893 13.6136 265.264 13.6136H262.787V24H261.378ZM266.855 18.7727L269.719 24H268.082L265.264 18.7727H266.855ZM271.889 24H270.412L274.685 12.3636H276.139L280.412 24H278.935L275.458 14.2045H275.367L271.889 24ZM272.435 19.4545H278.389V20.7045H272.435V19.4545ZM282.025 12.3636H283.707L287.661 22.0227H287.797L291.752 12.3636H293.434V24H292.116V15.1591H292.002L288.366 24H287.093L283.457 15.1591H283.343V24H282.025V12.3636Z" fill="#505050"/>
<line y1="0.5" x2="567" y2="0.5" stroke="#E0E7E9"/>
</svg>
